<svg xmlns="http://www.w3.org/2000/svg" width="15" height="9" viewBox="0 0 15 9" fill="none">
<path fill-rule="evenodd" clip-rule="evenodd" d="M0.80129 7.95823C0.85209 8.00916 0.912438 8.04957 0.978878 8.07714C1.04532 8.10471 1.11654 8.1189 1.18848 8.1189C1.26041 8.1189 1.33164 8.10471 1.39808 8.07714C1.46452 8.04957 1.52487 8.00916 1.57567 7.95823L7.75098 1.78183L13.9263 7.95823C13.9771 8.00908 14.0375 8.04941 14.1039 8.07693C14.1704 8.10445 14.2416 8.11861 14.3135 8.11861C14.3854 8.11861 14.4566 8.10445 14.523 8.07693C14.5895 8.04941 14.6498 8.00908 14.7007 7.95823C14.7515 7.90739 14.7918 7.84702 14.8194 7.78059C14.8469 7.71415 14.861 7.64295 14.861 7.57104C14.861 7.49914 14.8469 7.42793 14.8194 7.3615C14.7918 7.29507 14.7515 7.2347 14.7007 7.18386L8.13816 0.621356C8.08737 0.570428 8.02702 0.530022 7.96058 0.502452C7.89414 0.474883 7.82291 0.460692 7.75098 0.460692C7.67904 0.460692 7.60782 0.474883 7.54138 0.502452C7.47494 0.530022 7.41459 0.570428 7.36379 0.621356L0.80129 7.18386C0.750362 7.23466 0.709955 7.295 0.682386 7.36144C0.654816 7.42788 0.640625 7.49911 0.640625 7.57104C0.640625 7.64298 0.654816 7.7142 0.682386 7.78064C0.709955 7.84708 0.750362 7.90743 0.80129 7.95823Z" fill="#45372E"/>
</svg>