<svg xmlns="http://www.w3.org/2000/svg" width="15" height="9" viewBox="0 0 15 9" fill="none">
<path fill-rule="evenodd" clip-rule="evenodd" d="M0.80129 0.731221C0.85209 0.680293 0.912438 0.639886 0.978878 0.612317C1.04532 0.584747 1.11654 0.570557 1.18848 0.570557C1.26041 0.570557 1.33164 0.584747 1.39808 0.612317C1.46452 0.639886 1.52487 0.680293 1.57567 0.731221L7.75098 6.90763L13.9263 0.731221C13.9771 0.680375 14.0375 0.640042 14.1039 0.612524C14.1704 0.585006 14.2416 0.570843 14.3135 0.570843C14.3854 0.570843 14.4566 0.585006 14.523 0.612524C14.5895 0.640042 14.6498 0.680375 14.7007 0.731221C14.7515 0.782068 14.7918 0.842431 14.8194 0.908864C14.8469 0.975298 14.861 1.0465 14.861 1.11841C14.861 1.19032 14.8469 1.26152 14.8194 1.32795C14.7918 1.39439 14.7515 1.45475 14.7007 1.5056L8.13816 8.0681C8.08737 8.11903 8.02702 8.15943 7.96058 8.187C7.89414 8.21457 7.82291 8.22876 7.75098 8.22876C7.67904 8.22876 7.60782 8.21457 7.54138 8.187C7.47494 8.15943 7.41459 8.11903 7.36379 8.0681L0.80129 1.5056C0.750362 1.4548 0.709955 1.39445 0.682386 1.32801C0.654816 1.26157 0.640625 1.19034 0.640625 1.11841C0.640625 1.04648 0.654816 0.97525 0.682386 0.90881C0.709955 0.84237 0.750362 0.782021 0.80129 0.731221Z" fill="#45372E"/>
</svg>