<svg width="21" height="24" viewBox="0 0 21 24" fill="none" xmlns="http://www.w3.org/2000/svg">
<path d="M15.6305 6.175C15.6305 7.12435 15.349 8.05238 14.8215 8.84174C14.2941 9.63109 13.5444 10.2463 12.6673 10.6096C11.7903 10.9729 10.8251 11.068 9.89403 10.8828C8.96293 10.6976 8.10765 10.2404 7.43635 9.56911C6.76506 8.89782 6.30791 8.04254 6.1227 7.11143C5.93749 6.18032 6.03255 5.21521 6.39585 4.33812C6.75915 3.46103 7.37438 2.71138 8.16373 2.18395C8.95309 1.65652 9.88112 1.375 10.8305 1.375C12.1035 1.375 13.3244 1.88071 14.2246 2.78089C15.1248 3.68106 15.6305 4.90196 15.6305 6.175ZM14.4305 15.775H7.23047C5.63917 15.775 4.11305 16.4071 2.98783 17.5324C1.86261 18.6576 1.23047 20.1837 1.23047 21.775C1.23047 22.0933 1.3569 22.3985 1.58194 22.6235C1.80698 22.8486 2.11221 22.975 2.43047 22.975H19.2305C19.5487 22.975 19.854 22.8486 20.079 22.6235C20.304 22.3985 20.4305 22.0933 20.4305 21.775C20.4305 20.1837 19.7983 18.6576 18.6731 17.5324C17.5479 16.4071 16.0218 15.775 14.4305 15.775Z" stroke="#63564E" stroke-linecap="round" stroke-linejoin="round"/>
</svg>
