<svg width="21" height="20" viewBox="0 0 21 20" fill="none" xmlns="http://www.w3.org/2000/svg">
<path d="M17.7306 17.5L14.1115 13.8808M14.1115 13.8808C14.7305 13.2617 15.2216 12.5268 15.5567 11.7179C15.8917 10.9091 16.0641 10.0422 16.0641 9.16666C16.0641 8.29115 15.8917 7.42422 15.5567 6.61537C15.2216 5.80651 14.7305 5.07156 14.1115 4.45249C13.4924 3.83342 12.7575 3.34234 11.9486 3.0073C11.1397 2.67226 10.2728 2.49982 9.39731 2.49982C8.52181 2.49982 7.65488 2.67226 6.84602 3.0073C6.03716 3.34234 5.30221 3.83342 4.68314 4.45249C3.43287 5.70276 2.73047 7.3985 2.73047 9.16666C2.73047 10.9348 3.43287 12.6305 4.68314 13.8808C5.93341 15.1311 7.62915 15.8335 9.39731 15.8335C11.1655 15.8335 12.8612 15.1311 14.1115 13.8808Z" stroke="#45372E" stroke-linecap="round" stroke-linejoin="round"/>
</svg>
